<svg width="40" height="34" viewBox="0 0 40 34" fill="none" xmlns="http://www.w3.org/2000/svg">
<path d="M12.565 33.5C27.66 33.5 35.9175 20.9925 35.9175 10.165C35.9175 9.81502 35.9175 9.46002 35.9025 9.11002C37.5101 7.94624 38.8977 6.5054 40 4.85502C38.4983 5.51715 36.9069 5.95354 35.2775 6.15002C36.9938 5.12412 38.2793 3.50995 38.895 1.60752C37.2825 2.56283 35.5175 3.23346 33.6775 3.59002C32.4405 2.27258 30.8035 1.39982 29.0202 1.10692C27.2369 0.814017 25.4068 1.11733 23.8133 1.96987C22.2199 2.82241 20.952 4.1766 20.2061 5.82267C19.4602 7.46875 19.2779 9.31486 19.6875 11.075C16.4244 10.9114 13.232 10.0637 10.3176 8.58688C7.40317 7.11007 4.83171 5.03713 2.77 2.50252C1.72335 4.31023 1.40393 6.44853 1.87662 8.48319C2.3493 10.5179 3.57864 12.2963 5.315 13.4575C4.01385 13.4133 2.7413 13.0639 1.6 12.4375V12.55C1.60224 14.4437 2.25827 16.2786 3.45718 17.7444C4.6561 19.2103 6.32437 20.2172 8.18 20.595C7.47566 20.7891 6.74807 20.8858 6.0175 20.8825C5.50246 20.8841 4.98845 20.8364 4.4825 20.74C5.00697 22.3702 6.02818 23.7954 7.40312 24.8162C8.77805 25.837 10.4378 26.4021 12.15 26.4325C9.24139 28.717 5.6485 29.956 1.95 29.95C1.2983 29.9528 0.647058 29.9152 0 29.8375C3.75379 32.2307 8.11324 33.5014 12.565 33.5Z" fill="black"/>
</svg>
